<svg height="512pt" viewBox="0 -35 512 512" width="512pt" xmlns="http://www.w3.org/2000/svg"><path d="m512 0h-159.464844l-20.015625 297.253906 179.480469-20.019531zm0 0" fill="#005fe1"/><path d="m352.535156 0h-96.535156l-20.015625 297.253906 116.550781-20.019531zm0 0" fill="#03232e"/><path d="m0 0v277.234375l256 20.019531v-297.253906zm0 0" fill="#07485e"/><path d="m271.945312 119.933594h32.75v30h-32.75zm0 0" fill="#00cc76"/><path d="m47.839844 119.933594h192.214844v30h-192.214844zm0 0" fill="#00ff94"/><path d="m47.839844 56.148438h32.75v30h-32.75zm0 0" fill="#00ff94"/><path d="m47.839844 183.722656h32.75v30h-32.75zm0 0" fill="#00ff94"/><g fill="#03232e"><path d="m400.375 56.148438h63.785156v30h-63.785156zm0 0"/><path d="m400.375 119.933594h63.785156v30h-63.785156zm0 0"/><path d="m400.375 183.722656h63.785156v30h-63.785156zm0 0"/></g><path d="m341.046875 426.070312v-63.789062l-105.0625-20.015625 20.015625 83.804687zm0 0" fill="#87a0af"/><path d="m170.953125 426.070312h85.046875v-83.804687l-85.046875 20.015625zm0 0" fill="#b4d2d7"/><path d="m388.886719 441.066406v-30h-132.886719l-10.007812 15 10.007812 15zm0 0" fill="#b4d2d7"/><path d="m123.113281 411.066406h132.886719v30h-132.886719zm0 0" fill="#e1ebf0"/><path d="m256 277.234375-20.015625 42.527344 20.015625 42.519531h256v-85.046875zm0 0" fill="#b4d2d7"/><path d="m0 277.234375h256v85.046875h-256zm0 0" fill="#e1ebf0"/><path d="m304.695312 56.148438h-48.695312l-10.007812 15 10.007812 15h48.695312zm0 0" fill="#00cc76"/><path d="m304.695312 183.722656h-48.695312l-10.007812 15 10.007812 15h48.695312zm0 0" fill="#00cc76"/><path d="m112.484375 56.148438h143.515625v30h-143.515625zm0 0" fill="#00ff94"/><path d="m112.484375 183.722656h143.515625v30h-143.515625zm0 0" fill="#00ff94"/></svg>